Coordinates
version=1
nRows=10
nColumns=23
inDegrees=yes

Units are S.I. units (second, meters, Newtons, ...)
If the header above contains a line with 'inDegrees', this indicates whether rotational values are in degrees (yes) or radians (no).

endheader
time	pelvis_tilt	pelvis_list	pelvis_rotation	pelvis_tx	pelvis_ty	pelvis_tz	hip_flexion_r	hip_adduction_r	hip_rotation_r	knee_angle_r	knee_angle_r_beta	ankle_angle_r	subtalar_angle_r	mtp_angle_r	hip_flexion_l	hip_adduction_l	hip_rotation_l	knee_angle_l	knee_angle_l_beta	ankle_angle_l	subtalar_angle_l	mtp_angle_l
     15.00000000	     -4.03465095	      1.97259937	      6.49981539	      2.16114369	      1.07579845	      1.05942225	    -18.58674407	      1.74175740	    -17.38582152	     27.45301532	      0.47914551	    -17.09357695	     -2.58362016	      0.00000000	     39.85673267	      4.94705275	     -1.98724672	     43.59712611	      0.76091340	      0.22510478	     -2.55347590	      0.00000000
     15.00666667	     -4.27793173	      1.82501457	      6.89628476	      2.16191699	      1.07663421	      1.05815048	    -18.15800636	      1.97350546	    -16.81358137	     29.87120932	      0.52135095	    -17.01224610	     -2.88528234	      0.00000000	     39.20423592	      5.05893103	     -2.18197160	     40.02207457	      0.69851697	     -0.09224518	     -0.50815991	      0.00000000
     15.01333333	     -4.46477815	      1.61361740	      7.28744401	      2.16250497	      1.07706546	      1.05697142	    -17.65574336	      2.38525621	    -15.82464359	     32.45101095	      0.56637699	    -16.70047524	     -3.24878562	      0.00000000	     38.50688604	      5.14650522	     -2.25929124	     36.70888935	      0.64069098	     -0.47271086	      1.44569556	      0.00000000
     15.02000000	     -4.52217507	      1.46772742	      7.50136655	      2.16297724	      1.07719934	      1.05611895	    -17.12405932	      2.73945481	    -14.56785353	     35.31175657	      0.61630642	    -16.25389147	     -3.62570404	      0.00000000	     37.68148416	      5.13917675	     -2.59787163	     33.70972068	      0.58834562	     -0.87216610	      3.45059441	      0.00000000
     15.02666667	     -4.51953122	      1.26300874	      7.74161212	      2.16322995	      1.07689970	      1.05542683	    -16.51932444	      3.28386202	    -13.11396976	     38.32524060	      0.66890164	    -15.69168755	     -4.04554825	      0.00000000	     36.86509690	      5.11319360	     -2.77720678	     31.10857439	      0.54294705	     -1.26162423	      5.27418883	      0.00000000
     15.03333333	     -4.42635929	      1.10990483	      7.91432906	      2.16333628	      1.07621677	      1.05502542	    -15.86263634	      3.83717587	    -11.59274599	     41.56774819	      0.72549407	    -15.11317927	     -4.45884155	      0.00000000	     36.01188208	      5.06535106	     -3.04532294	     28.92704108	      0.50487211	     -1.66406108	      6.88657567	      0.00000000
     15.04000000	     -4.22991670	      0.91591993	      8.17645796	      2.16326493	      1.07519062	      1.05473786	    -15.20134989	      4.55419603	    -10.15267175	     44.91175847	      0.78385806	    -14.49813324	     -4.84672670	      0.00000000	     35.11657788	      5.05901700	     -3.00085307	     27.16473388	      0.47411405	     -1.92284101	      8.15782556	      0.00000000
     15.04666667	     -3.93653536	      0.90884699	      8.28224852	      2.16311903	      1.07370392	      1.05479436	    -14.52376567	      5.02421967	     -8.85595219	     48.51158463	      0.84668688	    -13.97449895	     -5.21609648	      0.00000000	     34.19103226	      5.03524433	     -3.39216820	     25.89389311	      0.45193369	     -2.29383743	      9.14312389	      0.00000000
     15.05333333	     -3.55638139	      1.02269674	      8.36495916	      2.16291491	      1.07172778	      1.05500298	    -13.84898156	      5.35167917	     -7.79997908	     52.25773395	      0.91206952	    -13.54303077	     -5.42797912	      0.00000000	     33.27180572	      5.03194917	     -4.02581427	     25.15890045	      0.43910565	     -2.64801379	      9.96736776	      0.00000000
     15.06000000	     -3.01707977	      1.20277236	      8.50299968	      2.16261158	      1.06931167	      1.05525903	    -13.28255456	      5.58694048	     -7.09457520	     56.05947627	      0.97842244	    -13.13990316	     -5.44760838	      0.00000000	     32.32171447	      5.01433513	     -4.84099895	     25.03032889	      0.43686165	     -2.74682731	     10.92429091	      0.00000000
